<svg width="28" height="22" viewBox="0 0 28 22" fill="none" xmlns="http://www.w3.org/2000/svg">
<path d="M26.8495 13.4979L27.4256 12.9358L28 13.4979L27.4256 14.0601L26.8495 13.4979ZM0 0.793995C0 0.583414 0.0857201 0.381458 0.238302 0.232555C0.390886 0.0836525 0.597836 0 0.813622 0C1.02941 0 1.23636 0.0836525 1.38894 0.232555C1.54152 0.381458 1.62724 0.583414 1.62724 0.793995H0ZM19.2894 4.99581L27.4256 12.9358L26.2735 14.0601L18.1373 6.12011L19.2894 4.99581ZM27.4256 14.0601L19.2894 22L18.1373 20.8757L26.2735 12.9358L27.4256 14.0601ZM26.8495 14.2919H10.5771V12.7039L26.8495 12.7039V14.2919ZM0 3.96997V0.793995H1.62724V3.96997H0ZM10.5771 14.2919C7.77187 14.2919 5.08155 13.2044 3.09796 11.2687C1.11437 9.33294 0 6.70752 0 3.96997H1.62724C1.62724 6.28636 2.57017 8.50787 4.24859 10.1458C5.92702 11.7837 8.20345 12.7039 10.5771 12.7039V14.2919Z" fill="#389A37"/>
</svg>
