<svg width="28.000000" height="22.000000" viewBox="0 0 28 22" fill="none" xmlns="http://www.w3.org/2000/svg" xmlns:xlink="http://www.w3.org/1999/xlink">
	<desc>
			Created with Pixso.
	</desc>
	<defs/>
	<path id="Vector" d="M1.15 8.5L0.57 9.06L0 8.5L0.57 7.93L1.15 8.5ZM28 21.2C28 21.41 27.91 21.61 27.76 21.76C27.6 21.91 27.4 22 27.18 22C26.97 22 26.76 21.91 26.61 21.76C26.45 21.61 26.37 21.41 26.37 21.2L28 21.2ZM8.71 17L0.57 9.06L1.72 7.93L9.86 15.87L8.71 17ZM0.57 7.93L8.71 0L9.86 1.12L1.72 9.06L0.57 7.93ZM1.15 7.7L17.42 7.7L17.42 9.29L1.15 9.29L1.15 7.7ZM28 18.03L28 21.2L26.37 21.2L26.37 18.03L28 18.03ZM17.42 7.7C20.22 7.7 22.91 8.79 24.9 10.73C26.88 12.66 28 15.29 28 18.03L26.37 18.03C26.37 15.71 25.42 13.49 23.75 11.85C22.07 10.21 19.79 9.29 17.42 9.29L17.42 7.7Z" fill="#222222" fill-opacity="1.000000" fill-rule="nonzero"/>
</svg>
